<svg id="Capa_1" enable-background="new 0 0 509.572 509.572" height="512" viewBox="0 0 509.572 509.572" width="512" xmlns="http://www.w3.org/2000/svg"><g><path d="m412.366 239.697c49.469-1.307 49.442-73.722-.001-75.016h-22.448c2.682-47.877-4.947-93.136-41.617-127.135l-10.378 10.83c33.977 31.623 39.185 72.226 36.995 116.305-70.602 0-169.44 0-240.032 0v-29.637c-1.899-97.186 116.353-155.867 192.48-95.679l9.065-11.951c-85.681-67.722-218.669-1.701-216.544 107.633-.002-.003-.002 29.634-.002 29.634h-22.262c-20.682 0-37.508 16.826-37.508 37.508s16.826 37.508 37.508 37.508h22.263v44.874h-15.042v60.054h16.34l-5.869 31.482h14.69l6.494-31.482h49.141l-30.91 149.946h-49.159l21.339-103.464h-14.69l-22.43 105.722v12.742h77.163l6.178-29.968h59.213v-15h-56.121l3.092-15h153.854l3.092 15h-58.918v15h62.01l6.178 29.968h77.163v-12.742l-31.393-152.204h13.554v-60.054h-14.936v-44.874zm0-60.015c12.411 0 22.508 10.097 22.508 22.508s-10.097 22.508-22.508 22.508h-127.497v-45.016zm-127.497 149.943v-30.054h104.984v30.054zm-15-149.943v149.954c0 8.272-6.729 15-15 15s-15-6.729-15-15v-149.954zm-194.755 22.508c0-12.411 10.097-22.508 22.508-22.508h127.247v45.016h-127.247c-12.411-.001-22.508-10.097-22.508-22.508zm59.771 37.507h89.984v44.874h-89.984zm-15.043 59.875h105.026v30.054h-105.026zm62.564 135.032 18.548-89.979h27.944c10.931 19.817 41.015 19.809 51.94 0h30.688l18.548 89.979zm224.505 59.968h-49.158l-30.91-149.946h49.141zm-31.994-210h-90.048v-44.874h90.048z"/><path d="m104.842 194.69h15v15h-15z"/><path d="m134.858 194.69h15v15h-15z"/><path d="m247.342 464.604h15v15h-15z"/><path d="m181.517 82.583c2.554-3.595 5.544-7.154 8.887-10.579l-10.732-10.479c-3.887 3.98-7.38 8.143-10.384 12.372z"/><path d="m200.807 62.87c3.764-2.832 7.677-5.329 11.631-7.422l-7.016-13.258c-4.652 2.462-9.24 5.387-13.635 8.695z"/></g></svg>