<?xml version="1.0" encoding="iso-8859-1"?>
<!-- Generator: Adobe Illustrator 19.0.0, SVG Export Plug-In . SVG Version: 6.00 Build 0)  -->
<svg version="1.1" id="Capa_1" xmlns="http://www.w3.org/2000/svg" xmlns:xlink="http://www.w3.org/1999/xlink" x="0px" y="0px"
	 viewBox="0 0 512.001 512.001" style="enable-background:new 0 0 512.001 512.001;" xml:space="preserve">
<g>
	<g>
		<path d="M262.028,384.94c-1.86-1.86-4.44-2.93-7.07-2.93s-5.21,1.07-7.07,2.93c-1.86,1.86-2.93,4.44-2.93,7.07
			s1.07,5.21,2.93,7.07c1.86,1.859,4.44,2.93,7.07,2.93s5.21-1.07,7.07-2.93c1.86-1.86,2.93-4.44,2.93-7.07
			S263.888,386.8,262.028,384.94z"/>
	</g>
</g>
<g>
	<g>
		<path d="M262.028,252.92c-1.86-1.86-4.44-2.93-7.07-2.93s-5.21,1.07-7.07,2.93c-1.86,1.86-2.93,4.439-2.93,7.07
			c0,2.63,1.07,5.21,2.93,7.069c1.86,1.86,4.44,2.931,7.07,2.931s5.21-1.07,7.07-2.931c1.86-1.859,2.93-4.439,2.93-7.069
			C264.958,257.359,263.888,254.78,262.028,252.92z"/>
	</g>
</g>
<g>
	<g>
		<path d="M322.948,44.75c-1.86-1.86-4.43-2.93-7.07-2.93c-2.63,0-5.21,1.07-7.07,2.93c-1.86,1.86-2.93,4.44-2.93,7.07
			s1.07,5.21,2.93,7.07c1.86,1.86,4.44,2.93,7.07,2.93c2.64,0,5.21-1.07,7.07-2.93c1.86-1.86,2.93-4.44,2.93-7.07
			S324.807,46.61,322.948,44.75z"/>
	</g>
</g>
<g>
	<g>
		<path d="M436.044,136H351.76c0.228-1.646,0.359-3.312,0.359-4.997c0-10.346-4.448-20.213-12.204-27.073
			c-2.6-2.299-4.18-5.502-4.453-8.908c6.13,0.353,12.359-1.827,17.07-6.539c5.161-5.162,7.294-12.148,6.373-18.827
			c5.376-4.07,8.808-10.52,8.808-17.824c0-7.303-3.432-13.754-8.808-17.824c0.921-6.679-1.212-13.666-6.375-18.829
			c-5.162-5.162-12.151-7.295-18.827-6.373C329.633,3.432,323.182,0,315.88,0c-7.303,0-13.753,3.432-17.824,8.808
			c-6.673-0.919-13.665,1.213-18.829,6.374c-5.161,5.162-7.295,12.149-6.374,18.828c-5.375,4.07-8.807,10.521-8.807,17.823
			c0,7.303,3.432,13.753,8.808,17.824c-0.921,6.679,1.213,13.666,6.375,18.829c4.722,4.721,10.967,6.9,17.113,6.534
			c-0.24,3.438-1.809,6.681-4.417,9.006c-7.688,6.854-12.097,16.687-12.097,26.978c0,1.684,0.132,3.351,0.359,4.997H235.72
			c8.857-10.187,14.238-23.473,14.238-38c0-5.523-4.477-10-10-10h-144c-5.523,0-10,4.477-10,10c0,14.527,5.381,27.813,14.238,38
			H75.958c-5.523,0-10,4.477-10,10v356c0,5.522,4.477,10,10,10h39c5.523,0,10-4.478,10-10v-34h260v34c0,5.522,4.477,10,10,10h41.086
			c5.523,0,10-4.478,10-10V146C446.044,140.477,441.567,136,436.044,136z M293.37,74.344c-0.905-0.906-0.915-2.355-0.022-3.3
			c2.708-2.866,3.479-7.055,1.969-10.697c-1.51-3.643-5.019-6.058-8.96-6.167c-1.296-0.036-2.311-1.066-2.311-2.346
			c0-1.28,1.016-2.311,2.312-2.347c3.941-0.11,7.45-2.525,8.959-6.167c1.51-3.642,0.738-7.831-1.97-10.697
			c-0.893-0.945-0.882-2.394,0.021-3.298c0.905-0.906,2.355-0.916,3.3-0.022c2.865,2.708,7.054,3.479,10.696,1.969
			c3.642-1.509,6.057-5.018,6.167-8.958c0.036-1.297,1.067-2.313,2.347-2.313c1.28,0,2.311,1.016,2.347,2.313
			c0.11,3.941,2.525,7.45,6.167,8.959c3.642,1.509,7.832,0.738,10.697-1.97c0.944-0.893,2.394-0.883,3.297,0.021
			c0.906,0.906,0.916,2.355,0.023,3.3c-2.708,2.866-3.479,7.055-1.97,10.697c1.509,3.643,5.018,6.058,8.959,6.167
			c1.297,0.036,2.313,1.067,2.313,2.347c0,1.28-1.016,2.31-2.312,2.346c-3.941,0.109-7.45,2.524-8.96,6.167
			c-1.51,3.642-0.739,7.831,1.969,10.697c0.893,0.945,0.883,2.395-0.021,3.299c-0.905,0.904-2.354,0.915-3.299,0.022
			c-2.865-2.708-7.056-3.478-10.697-1.969c-3.642,1.509-6.057,5.018-6.167,8.959c-0.036,1.296-1.067,2.312-2.347,2.312
			c-1.28,0-2.311-1.016-2.347-2.312c-0.11-3.941-2.525-7.449-6.167-8.958c-1.237-0.513-2.537-0.762-3.827-0.762
			c-2.508,0-4.977,0.943-6.87,2.731C295.724,75.259,294.276,75.248,293.37,74.344z M332.12,131.003c0,1.716-0.268,3.397-0.789,4.997
			h-30.714c-0.522-1.599-0.79-3.281-0.79-4.997c0-4.594,1.97-8.986,5.405-12.048c4.645-4.14,7.992-9.453,9.749-15.289h1.874
			c1.78,5.825,5.147,11.122,9.811,15.246C330.133,121.977,332.12,126.385,332.12,131.003z M228.622,108
			c-4.4,16.118-19.171,28-36.665,28h-48c-17.494,0-32.265-11.882-36.665-28H228.622z M104.958,458v34h-19V204h19V458z M384.958,448
			h-260V336.02h219c5.523,0,10-4.478,10-10c0-5.522-4.477-10-10-10h-219V204h260V448z M426.044,492h-21.086v-34V204h21.086V492z
			 M426.044,184H85.958v-28h340.086V184z"/>
	</g>
</g>
<g>
</g>
<g>
</g>
<g>
</g>
<g>
</g>
<g>
</g>
<g>
</g>
<g>
</g>
<g>
</g>
<g>
</g>
<g>
</g>
<g>
</g>
<g>
</g>
<g>
</g>
<g>
</g>
<g>
</g>
</svg>
