<svg id="Capa_1" enable-background="new 0 0 512 512" height="512" viewBox="0 0 512 512" width="512" xmlns="http://www.w3.org/2000/svg"><g><path d="m509.01 408.64c4.575-12.894 3.873-26.811-1.919-39.234-5.884-12.618-16.332-22.181-29.421-26.927l-114.189-41.4c-20.946-7.594-35.02-27.667-35.02-49.948 0-24.301-19.77-44.071-44.071-44.071h-18.375v-17.789c21.168-4.605 37.069-23.488 37.069-46.015 0-25.965-21.124-47.088-47.088-47.088s-47.088 21.124-47.088 47.088c0 5.533 4.486 10.019 10.019 10.019s10.019-4.485 10.019-10.019c0-14.916 12.135-27.051 27.051-27.051s27.051 12.135 27.051 27.051-12.135 27.051-27.051 27.051c-5.533 0-10.019 4.485-10.019 10.019v26.735h-18.375c-24.3 0-44.071 19.77-44.071 44.07 0 22.281-14.073 42.354-35.02 49.948l-114.189 41.4c-13.089 4.746-23.537 14.309-29.421 26.927-5.883 12.619-6.492 26.77-1.712 39.847 1.43 3.911 5.282 6.579 9.441 6.579h198.457c5.533 0 10.019-4.485 10.019-10.019 0-5.533-4.486-10.019-10.019-10.019h-141.46l55.266-20.038h262.203l55.267 20.038h-141.458c-5.533 0-10.019 4.485-10.019 10.019 0 5.533 4.486 10.019 10.019 10.019h198.407c4.46 0 8.468-3.727 9.697-7.192zm-485.947-30.767c3.617-7.759 10.042-13.639 18.09-16.556l114.189-41.401c28.847-10.459 48.228-38.101 48.228-68.786 0-13.252 10.781-24.033 24.033-24.033h56.788c13.252 0 24.033 10.781 24.033 24.033 0 30.684 19.381 58.327 48.228 68.786l114.189 41.4c8.047 2.918 14.472 8.798 18.09 16.556 2.161 4.636 3.165 9.609 2.996 14.576l-232.517-84.3c-2.192-.795-4.637-.795-6.829 0l-232.514 84.301c-.169-4.967.835-9.94 2.996-14.576zm157.098-22.154 75.835-27.495 75.835 27.495z"/><path d="m236.96 267.173h38.072c5.533 0 10.019-4.485 10.019-10.019s-4.486-10.019-10.019-10.019h-38.072c-5.533 0-10.019 4.485-10.019 10.019s4.486 10.019 10.019 10.019z"/><circle cx="255.996" cy="405.813" r="10.019"/></g></svg>