<?xml version="1.0" encoding="iso-8859-1"?>
<!-- Generator: Adobe Illustrator 19.0.0, SVG Export Plug-In . SVG Version: 6.00 Build 0)  -->
<svg version="1.1" id="Layer_1" xmlns="http://www.w3.org/2000/svg" xmlns:xlink="http://www.w3.org/1999/xlink" x="0px" y="0px"
	 viewBox="0 0 512 512" style="enable-background:new 0 0 512 512;" xml:space="preserve">
<g>
	<g>
		<g>
			<path d="M360.154,238.824c0.007,0,0.016,0.001,0.023,0.001c0.007,0,0.014-0.001,0.021-0.001h116.526
				c2.772,0,5.344-1.444,6.786-3.811c1.444-2.366,1.55-5.314,0.28-7.778L408.514,81.109l-0.096-0.183
				c-0.083-0.193-0.173-0.383-0.27-0.568c-2.786-5.306-7.408-8.473-12.367-8.473h-65.737c-0.013,0-0.026,0-0.039,0H178.936
				c-0.013,0-0.026,0-0.039,0h-62.678c-4.954,0-9.576,3.166-12.364,8.468c-0.091,0.173-0.183,0.369-0.265,0.56l-36.394,70.646
				c-0.005,0.01-0.01,0.019-0.015,0.029l-38.972,75.648c-1.27,2.464-1.164,5.412,0.28,7.778c1.442,2.367,4.015,3.811,6.786,3.811
				H148.74c0.007,0,0.014,0.001,0.021,0.001c0.007,0,0.016-0.001,0.023-0.001h211.37V238.824z M262.42,87.783h61.045l11.924,59.623
				H262.42V87.783z M142.237,222.926H48.312l30.715-59.622h75.133L142.237,222.926z M87.217,147.406l30.396-59.004l0.075-0.142
				c0.086-0.159,0.165-0.314,0.244-0.477h51.331l-11.924,59.623H87.217z M246.522,222.926H158.45l11.924-59.622h76.148V222.926z
				 M246.522,147.406h-72.969l11.924-59.623h61.045V147.406z M262.419,222.926v-59.622h0.001h76.147l11.922,59.622H262.419z
				 M339.678,87.783h54.39c0.078,0.163,0.159,0.318,0.244,0.477l30.47,59.146h-73.181L339.678,87.783z M432.973,163.304
				l30.715,59.622h-96.985l-11.922-59.622H432.973z"/>
			<path d="M511.99,233.473c0.054-4.572-0.768-9.198-2.441-13.744c-0.297-0.808-0.65-1.611-1.051-2.392l-76.177-147.87
				c-5.163-11.151-17.786-24.078-36.541-24.078H116.218c-18.754,0-31.376,12.927-36.54,24.078L3.498,217.344
				c-0.398,0.774-0.75,1.577-1.044,2.378c-1.674,4.547-2.495,9.165-2.444,13.733C0.003,233.662,0,233.867,0,234.074
				c0,4.262,0.907,8.404,2.698,12.317c4.924,11.504,16.035,18.93,28.341,18.93h14.061l54.056,67.712l-2.162,125.492
				c-0.075,4.39,3.422,8.009,7.811,8.085c0.047,0.001,0.093,0.001,0.14,0.001c4.325,0,7.871-3.469,7.945-7.812l1.831-106.269
				l25.392,31.807c1.57,1.965,3.882,2.989,6.217,2.989c1.739,0,3.49-0.567,4.955-1.737c3.43-2.739,3.991-7.741,1.253-11.172
				l-37.387-46.831l1.073-62.264h30.462c4.391,0,7.949-3.558,7.949-7.949c0-4.391-3.558-7.949-7.949-7.949H31.039
				c-5.95,0-11.348-3.67-13.752-9.35c-0.034-0.081-0.07-0.161-0.107-0.242c-0.852-1.839-1.284-3.776-1.284-5.758l0.005-0.216
				c0.006-0.154,0.007-0.306,0.005-0.461c-0.047-2.663,0.445-5.416,1.466-8.189c0.073-0.199,0.162-0.4,0.26-0.591L93.893,76.59
				c0.058-0.111,0.112-0.225,0.164-0.338c2.538-5.558,10.06-14.964,22.162-14.964h279.562c12.101,0,19.625,9.405,22.162,14.963
				c0.052,0.113,0.107,0.227,0.164,0.338l76.255,148.021c0.103,0.199,0.191,0.4,0.266,0.604c1.02,2.771,1.512,5.528,1.464,8.196
				c-0.003,0.159-0.001,0.318,0.006,0.477l0.004,0.185c0,1.981-0.431,3.918-1.284,5.758c-0.036,0.08-0.072,0.16-0.107,0.242
				c-2.404,5.68-7.801,9.35-13.752,9.35H175.303c-4.391,0-7.949,3.558-7.949,7.949c0,4.391,3.558,7.949,7.949,7.949h228.845
				l1.073,62.263l-37.387,46.833c-2.739,3.431-2.178,8.433,1.253,11.172c1.466,1.17,3.216,1.737,4.955,1.737
				c2.334,0,4.648-1.024,6.217-2.989l25.392-31.808l1.83,106.27c0.074,4.343,3.618,7.812,7.945,7.812c0.047,0,0.093,0,0.14-0.001
				c4.39-0.075,7.887-3.695,7.811-8.085l-2.162-125.493l54.055-67.711h5.69c12.306,0,23.417-7.427,28.341-18.93
				c1.79-3.913,2.698-8.056,2.698-12.317C512,233.874,511.997,233.673,511.99,233.473z M100.324,265.321l-0.738,42.767
				l-34.142-42.767H100.324z M420.785,308.087l-0.737-42.766h34.878L420.785,308.087z"/>
		</g>
	</g>
</g>
<g>
</g>
<g>
</g>
<g>
</g>
<g>
</g>
<g>
</g>
<g>
</g>
<g>
</g>
<g>
</g>
<g>
</g>
<g>
</g>
<g>
</g>
<g>
</g>
<g>
</g>
<g>
</g>
<g>
</g>
</svg>
