<?xml version="1.0" encoding="iso-8859-1"?>
<!-- Generator: Adobe Illustrator 19.0.0, SVG Export Plug-In . SVG Version: 6.00 Build 0)  -->
<svg version="1.1" id="Capa_1" xmlns="http://www.w3.org/2000/svg" xmlns:xlink="http://www.w3.org/1999/xlink" x="0px" y="0px"
	 viewBox="0 0 512 512" style="enable-background:new 0 0 512 512;" xml:space="preserve">
<g>
	<g>
		<path d="M421.822,163.55h40c5.523,0,10-4.478,10-10v-9.926H502c5.522,0,10-4.478,10-10v-40c0-5.522-4.478-10-10-10h-30.178v-9.926
			c0-5.522-4.477-10-10-10h-40c-5.522,0-10,4.478-10,10v9.926H390.83V40c0-2.824-1.194-5.517-3.287-7.412l-33.126-30
			c-3.809-3.45-9.613-3.451-13.425-0.001L314.65,26.439L288.316,2.588c-3.81-3.45-9.613-3.451-13.425-0.001l-26.343,23.852
			L222.214,2.588c-3.81-3.45-9.613-3.451-13.425-0.001l-26.344,23.851l-26.332-23.85c-3.81-3.45-9.613-3.451-13.425-0.001
			l-26.345,23.851L90.01,2.588c-3.81-3.45-9.613-3.451-13.425-0.001l-33.135,30c-2.094,1.896-3.288,4.589-3.288,7.413v43.624H10
			c-5.522,0-10,4.478-10,10v40c0,5.522,4.478,10,10,10h30.162v235H10c-5.522,0-10,4.478-10,10v40c0,5.523,4.478,10,10,10h30.162V472
			c0,2.824,1.194,5.518,3.288,7.413l33.135,30c1.905,1.725,4.309,2.587,6.712,2.587s4.808-0.863,6.713-2.588l26.334-23.85
			l26.345,23.851c1.905,1.725,4.309,2.587,6.712,2.587c2.404,0,4.808-0.862,6.713-2.588l26.332-23.85l26.344,23.851
			c1.905,1.725,4.309,2.587,6.712,2.587s4.808-0.863,6.713-2.588l26.334-23.851l26.343,23.852c1.905,1.725,4.309,2.587,6.712,2.587
			s4.808-0.863,6.713-2.588l26.334-23.851l26.343,23.852c1.905,1.725,4.309,2.587,6.712,2.587s4.808-0.862,6.713-2.588l33.126-30
			c2.093-1.896,3.287-4.588,3.287-7.412v-33.376h20.992v9.926c0,5.522,4.478,10,10,10h40c5.523,0,10-4.478,10-10v-9.926H502
			c5.522,0,10-4.477,10-10v-40c0-5.522-4.478-10-10-10h-30.178v-9.926c0-5.522-4.477-10-10-10h-40c-5.522,0-10,4.478-10,10v9.926
			H390.83v-235h20.992v9.926C411.822,159.072,416.3,163.55,421.822,163.55z M471.822,103.624H492v20h-20.178V103.624z
			 M431.822,83.698h20v59.852h-20V83.698z M40.162,425.463c-0.217-2.286-0.272-4.563-0.219-6.839H20v-20h20.162V425.463z
			 M40.162,123.624H20v-20h20.162V123.624z M106.264,467.708L83.296,488.51l-23.134-20.945V44.436L83.296,23.49l22.968,20.802
			V467.708z M172.366,467.709L149.4,488.51l-22.978-20.802V44.292L149.4,23.49l22.966,20.801V467.709z M238.468,467.708
			L215.5,488.51l-22.977-20.802V44.292L215.5,23.49l22.968,20.802V467.708z M304.571,467.708l-22.969,20.802l-22.977-20.803V44.293
			l22.977-20.803l22.969,20.802V467.708z M370.83,467.565l-23.127,20.945l-22.976-20.803V44.293l22.976-20.803l23.127,20.945
			V467.565z M471.822,398.624H492v20h-20.178V398.624z M431.822,378.698h20v59.852h-20V378.698z M411.822,398.624v20H390.83v-20
			H411.822z M390.83,123.624v-20h20.992v20H390.83z"/>
	</g>
</g>
<g>
</g>
<g>
</g>
<g>
</g>
<g>
</g>
<g>
</g>
<g>
</g>
<g>
</g>
<g>
</g>
<g>
</g>
<g>
</g>
<g>
</g>
<g>
</g>
<g>
</g>
<g>
</g>
<g>
</g>
</svg>
