<svg id="Layer_1" enable-background="new 0 0 512.001 512.001" height="512" viewBox="0 0 512.001 512.001" width="512" xmlns="http://www.w3.org/2000/svg"><g><g><path d="m478.048 414.254h-22.01v-200.014c2.544-.004 5.104-.333 7.628-1.006 7.8-2.078 14.311-7.118 18.335-14.191 8.199-14.413 3.318-32.952-10.892-41.333l-199.748-117.422c-9.367-5.653-21.024-5.719-30.43-.171l-61.226 35.991c-4.761 2.799-6.352 8.928-3.553 13.688 2.8 4.762 8.929 6.353 13.689 3.554l61.238-35.998c3.082-1.817 6.901-1.79 9.969.071.04.024.08.049.12.072l199.795 117.448c4.846 2.858 6.486 9.233 3.655 14.21-1.353 2.378-3.52 4.066-6.1 4.754-2.513.674-5.142.306-7.411-1.032l-190.038-111.712c-3.129-1.838-7.007-1.838-10.136 0l-190.05 111.72c-2.257 1.331-4.885 1.695-7.399 1.025-2.581-.688-4.747-2.376-6.1-4.754-2.832-4.977-1.191-11.352 3.643-14.202l61.219-35.987c4.761-2.799 6.352-8.928 3.553-13.688-2.798-4.762-8.927-6.353-13.688-3.554l-61.231 35.995c-14.199 8.373-19.079 26.912-10.88 41.325 4.024 7.073 10.535 12.113 18.335 14.191 2.525.672 5.084 1.006 7.628 1.01v200.01h-22.01c-18.722 0-33.953 13.85-33.953 30.873 0 17.022 15.231 30.872 33.953 30.872h444.095c18.722 0 33.953-13.85 33.953-30.873 0-17.022-15.231-30.872-33.953-30.872zm-402.085-207.035 180.038-105.835 180.038 105.835v207.035h-360.076zm402.085 248.78h-444.095c-7.563 0-13.953-4.979-13.953-10.873s6.39-10.872 13.953-10.872h444.095c7.563 0 13.953 4.979 13.953 10.873s-6.39 10.872-13.953 10.872z"/><path d="m340.4 366.2h-8.678l-27.487-57.89c-1.656-3.488-5.172-5.711-9.034-5.711h-50v-43.599h43.4c5.523 0 10-4.478 10-10s-4.477-10-10-10h-43.4v-9.781c13.042-4.228 22.5-16.487 22.5-30.919 0-17.921-14.58-32.5-32.5-32.5s-32.5 14.579-32.5 32.5c0 14.432 9.458 26.69 22.5 30.919v83.381c0 5.522 4.477 10 10 10h53.678l27.487 57.89c1.656 3.488 5.172 5.711 9.033 5.711h15c5.523 0 10-4.478 10-10s-4.476-10.001-9.999-10.001zm-105.198-180.4c6.893 0 12.5 5.607 12.5 12.5s-5.607 12.5-12.5 12.5-12.5-5.607-12.5-12.5 5.608-12.5 12.5-12.5z"/><path d="m273.103 350.501c-10.125 10.124-23.584 15.699-37.901 15.699-29.555 0-53.6-24.045-53.6-53.601 0-19.088 10.27-36.875 26.8-46.419 4.783-2.762 6.422-8.877 3.66-13.66s-8.877-6.423-13.66-3.66c-22.699 13.105-36.8 37.529-36.8 63.739 0 40.584 33.017 73.601 73.6 73.601 19.659 0 38.142-7.655 52.043-21.557 3.905-3.905 3.906-10.237 0-14.143-3.904-3.902-10.237-3.903-14.142.001z"/><path d="m145.979 117.535c5.523 0 10-4.478 10-10s-4.477-10-10-10h-.007c-5.523 0-9.996 4.478-9.996 10s4.48 10 10.003 10z"/></g></g></svg>