<svg id="Capa_1" enable-background="new 0 0 512 512" height="512" viewBox="0 0 512 512" width="512" xmlns="http://www.w3.org/2000/svg"><g><path d="m462 77.137h-412c-27.57 0-50 22.43-50 50v257.726c0 27.57 22.43 50 50 50h412c27.57 0 50-22.43 50-50v-257.726c0-27.57-22.43-50-50-50zm-442 307.726v-257.726c0-16.542 13.458-30 30-30h322v317.726h-322c-16.542 0-30-13.458-30-30zm472 0c0 16.542-13.458 30-30 30h-70v-317.726h70c16.542 0 30 13.458 30 30z"/><path d="m342 231.005c-5.522 0-10 4.477-10 10v133.858h-272v-237.726h272v23.868c0 5.523 4.478 10 10 10s10-4.477 10-10v-33.868c0-5.523-4.478-10-10-10h-292c-5.522 0-10 4.477-10 10v257.726c0 5.523 4.478 10 10 10h292c5.522 0 10-4.477 10-10v-143.858c0-5.523-4.478-10-10-10z"/><path d="m442 126c-16.542 0-30 13.458-30 30s13.458 30 30 30 30-13.458 30-30-13.458-30-30-30zm0 40c-5.514 0-10-4.486-10-10s4.486-10 10-10 10 4.486 10 10-4.486 10-10 10z"/><path d="m442 206c-16.542 0-30 13.458-30 30s13.458 30 30 30 30-13.458 30-30-13.458-30-30-30zm0 40c-5.514 0-10-4.486-10-10s4.486-10 10-10 10 4.486 10 10-4.486 10-10 10z"/><path d="m462 286h-40c-5.522 0-10 4.477-10 10s4.478 10 10 10h40c5.522 0 10-4.477 10-10s-4.478-10-10-10z"/><path d="m462 326h-40c-5.522 0-10 4.477-10 10s4.478 10 10 10h40c5.522 0 10-4.477 10-10s-4.478-10-10-10z"/><path d="m462 366h-40c-5.522 0-10 4.477-10 10s4.478 10 10 10h40c5.522 0 10-4.477 10-10s-4.478-10-10-10z"/><path d="m90 344.863c0 5.523 4.478 10 10 10h192c5.522 0 10-4.477 10-10s-4.478-10-10-10h-43.754c13.406-11.93 22.43-28.027 25.453-45.534.997-5.775-.603-11.667-4.392-16.165-3.82-4.536-9.41-7.138-15.337-7.138h-115.941c-5.927 0-11.517 2.602-15.337 7.138-3.788 4.499-5.389 10.391-4.392 16.165 3.023 17.507 12.048 33.605 25.454 45.534h-43.754c-5.522 0-10 4.477-10 10zm48.027-58.837h.002 115.941l.002.001c-4.86 27.848-29.765 48.835-57.973 48.835s-53.111-20.986-57.972-48.836z"/><path d="m206 236.026v-49.333c0-5.523-4.477-10-10-10s-10 4.477-10 10v49.333c0 5.523 4.477 10 10 10s10-4.477 10-10z"/><path d="m246 236.026v-24.666c0-5.523-4.477-10-10-10s-10 4.477-10 10v24.666c0 5.523 4.477 10 10 10s10-4.477 10-10z"/><path d="m166 236.026v-24.666c0-5.523-4.477-10-10-10s-10 4.477-10 10v24.666c0 5.523 4.477 10 10 10s10-4.477 10-10z"/><circle cx="342" cy="201" r="10"/></g></svg>