<svg id="Capa_1" enable-background="new 0 0 505.776 505.776" height="512" viewBox="0 0 505.776 505.776" width="512" xmlns="http://www.w3.org/2000/svg"><g><path d="m488.653 379.469c15.469-58.313 15.388-119.399-.236-177.686 19.482-13.261 22.292-40.761 8.021-58.964-17.057-21.756-51.928-18.973-65.896 4.87-15.544-3.719-31.351-6.745-47.152-9.039-.933-4.062-1.933-8.114-3.015-12.151 19.483-13.26 22.293-40.761 8.022-58.964-17.057-21.756-51.929-18.974-65.896 4.87-81.075-19.4-166.151-19.298-247.153.297-12.823-21.974-43.611-26.772-62.403-9.594-19.358 17.694-16.611 50.064 5.599 64.161-4.142 15.616-7.202 31.593-9.114 47.606-1.524 12.768 18.336 15.121 19.859 2.371 2.115-17.713 5.721-35.377 10.716-52.502 1.498-5.133-1.308-10.536-6.368-12.264-21.395-7.306-15.942-39.996 6.642-39.996 9.069 0 17.178 6.075 19.721 14.773 1.516 5.187 6.878 8.23 12.107 6.875 82.92-21.494 170.622-21.604 253.626-.32 5.182 1.331 10.492-1.656 12.05-6.774 6.701-22.006 40.209-16.945 40.209 5.997 0 8.516-5.127 16.027-13.061 19.136-4.825 1.891-7.406 7.153-5.947 12.125 17.463 59.537 17.555 122.493.268 182.062-1.431 4.93 1.104 10.143 5.865 12.062 7.822 3.153 12.876 10.636 12.876 19.063 0 11.331-9.219 20.55-20.55 20.55-8.826 0-16.65-5.618-19.47-13.98-1.674-4.963-6.894-7.791-11.965-6.489-83.171 21.376-171.057 21.264-254.158-.321-5.121-1.331-10.393 1.56-12.025 6.591-2.757 8.494-10.612 14.2-19.546 14.2-11.331 0-20.55-9.219-20.55-20.55 0-8.702 5.514-16.492 13.721-19.384 4.997-1.761 7.753-7.114 6.284-12.205-4.858-16.831-8.374-34.188-10.45-51.589-1.524-12.768-21.381-10.381-19.859 2.369 1.875 15.716 4.856 31.396 8.88 46.73-21.99 14.203-24.643 46.379-5.361 64.004 18.494 16.905 48.902 12.66 61.951-8.781 16.145 3.921 32.455 7.054 48.86 9.425.814 3.553 1.664 7.104 2.591 10.634-19.889 12.846-23.405 40.319-9.464 58.934 16.645 22.225 51.656 19.947 66.054-3.71 81.315 19.744 166.747 19.844 248.12.287 12.317 19.809 39.113 23.976 57.971 10.966 22.581-15.579 22.204-50.063-.374-65.695zm-21.625-179.89c17.462 59.538 17.555 122.493.267 182.061-1.431 4.93 1.104 10.143 5.864 12.062 20.387 8.221 14.362 39.613-7.673 39.613-8.826 0-16.65-5.618-19.47-13.98-1.674-4.963-6.893-7.791-11.965-6.489-83.17 21.376-171.057 21.264-254.158-.321-5.121-1.331-10.392 1.56-12.026 6.592-7.034 21.674-40.095 16.394-40.095-6.351 0-8.702 5.514-16.491 13.72-19.383 4.998-1.761 7.754-7.114 6.285-12.205-1-3.465-1.943-6.969-2.832-10.488 59.437 6.154 119.795 2.233 178.072-11.773 7.283 11.713 20.196 19.117 34.428 19.117 22.359 0 40.55-18.19 40.55-40.55 0-13.536-6.604-25.835-17.382-33.297 12.572-47.389 14.872-96.609 6.908-144.67 15.546 2.48 31.057 5.682 46.256 9.579 5.183 1.331 10.492-1.655 12.05-6.773 6.7-22.007 40.209-16.945 40.209 5.997 0 8.515-5.126 16.026-13.061 19.136-4.824 1.889-7.406 7.151-5.947 12.123z"/><path d="m16.786 225.785c4.632 0 8.753-3.324 9.76-7.834 1.998-8.951-8.677-15.686-15.909-10.049-7.324 5.708-3.141 17.883 6.149 17.883z"/></g></svg>