<?xml version="1.0" encoding="iso-8859-1"?>
<!-- Generator: Adobe Illustrator 19.0.0, SVG Export Plug-In . SVG Version: 6.00 Build 0)  -->
<svg version="1.1" id="Capa_1" xmlns="http://www.w3.org/2000/svg" xmlns:xlink="http://www.w3.org/1999/xlink" x="0px" y="0px"
	 viewBox="0 0 512 512" style="enable-background:new 0 0 512 512;" xml:space="preserve">
<g>
	<g>
		<path d="M502,331.965H100V188h220c5.523,0,10-4.477,10-10v-16.664c0-35.788-29.115-64.903-64.903-64.903H100V72h16
			c5.523,0,10-4.477,10-10V10c0-5.523-4.477-10-10-10H10C4.477,0,0,4.477,0,10v492c0,5.523,4.477,10,10,10h373
			c71.131,0,129-57.869,129-129v-41.035C512,336.442,507.523,331.965,502,331.965z M80,178v163.965V492H69.958v-73.5
			c0-5.523-4.477-10-10-10s-10,4.477-10,10V492H20V20h86v32H90c-5.523,0-10,4.477-10,10v44.433c0,5.523,4.477,10,10,10h175.097
			c24.759,0,44.903,20.144,44.903,44.903V168H90C84.477,168,80,172.477,80,178z M492,383c0,60.103-48.897,109-109,109H100V351.965
			h392V383z"/>
	</g>
</g>
<g>
	<g>
		<path d="M317.938,310.117l-1.099-4.878c-1.213-5.388-6.562-8.771-11.953-7.559c-5.388,1.214-8.772,6.565-7.559,11.953l1.098,4.878
			c1.047,4.648,5.174,7.805,9.747,7.805c0.728,0,1.467-0.08,2.207-0.246C315.767,320.856,319.151,315.505,317.938,310.117z"/>
	</g>
</g>
<g>
	<g>
		<path d="M310.249,275.972l-1.099-4.878c-1.214-5.388-6.564-8.775-11.953-7.558c-5.388,1.213-8.772,6.564-7.558,11.953l1.097,4.877
			c1.047,4.648,5.174,7.805,9.747,7.805c0.728,0,1.467-0.08,2.207-0.246C308.078,286.711,311.462,281.36,310.249,275.972z"/>
	</g>
</g>
<g>
	<g>
		<path d="M294.871,207.681l-1.099-4.878c-1.214-5.388-6.564-8.773-11.953-7.558c-5.388,1.213-8.772,6.564-7.559,11.953l1.099,4.878
			c1.047,4.648,5.173,7.805,9.746,7.805c0.728-0.001,1.467-0.08,2.207-0.247C292.7,218.42,296.084,213.069,294.871,207.681z"/>
	</g>
</g>
<g>
	<g>
		<path d="M302.56,241.828l-1.098-4.878c-1.213-5.389-6.568-8.773-11.952-7.56c-5.388,1.213-8.772,6.564-7.56,11.952l1.097,4.878
			c1.046,4.649,5.173,7.806,9.747,7.806c0.728,0,1.466-0.08,2.206-0.246C300.388,252.567,303.772,247.216,302.56,241.828z"/>
	</g>
</g>
<g>
	<g>
		<path d="M256,195c-5.523,0-10,4.477-10,10v5c0,5.523,4.477,10,10,10s10-4.477,10-10v-5C266,199.477,261.523,195,256,195z"/>
	</g>
</g>
<g>
	<g>
		<path d="M256,230c-5.523,0-10,4.477-10,10v5c0,5.523,4.477,10,10,10s10-4.477,10-10v-5C266,234.477,261.523,230,256,230z"/>
	</g>
</g>
<g>
	<g>
		<path d="M256,265c-5.523,0-10,4.477-10,10v5c0,5.523,4.477,10,10,10s10-4.477,10-10v-5C266,269.477,261.523,265,256,265z"/>
	</g>
</g>
<g>
	<g>
		<path d="M256,300c-5.523,0-10,4.477-10,10v5c0,5.523,4.477,10,10,10s10-4.477,10-10v-5C266,304.478,261.523,300,256,300z"/>
	</g>
</g>
<g>
	<g>
		<path d="M207.117,297.679c-5.386-1.21-10.741,2.171-11.954,7.559l-1.099,4.878c-1.213,5.388,2.171,10.739,7.559,11.953
			c0.74,0.167,1.479,0.246,2.207,0.246c4.573,0,8.7-3.157,9.747-7.805l1.099-4.878C215.889,304.244,212.505,298.893,207.117,297.679
			z"/>
	</g>
</g>
<g>
	<g>
		<path d="M230.181,195.245c-5.385-1.215-10.739,2.17-11.953,7.558l-1.099,4.878c-1.213,5.388,2.171,10.739,7.559,11.953
			c0.74,0.167,1.479,0.246,2.207,0.246c4.573,0,8.7-3.156,9.746-7.804l1.099-4.878C238.953,201.81,235.569,196.459,230.181,195.245z
			"/>
	</g>
</g>
<g>
	<g>
		<path d="M222.491,229.39c-5.39-1.216-10.739,2.171-11.952,7.56l-1.098,4.878c-1.213,5.388,2.171,10.739,7.56,11.952
			c0.74,0.167,1.478,0.246,2.206,0.246c4.572-0.001,8.7-3.158,9.746-7.806l1.098-4.878
			C231.264,235.954,227.88,230.603,222.491,229.39z"/>
	</g>
</g>
<g>
	<g>
		<path d="M214.804,263.535c-5.387-1.217-10.74,2.17-11.953,7.558l-1.099,4.878c-1.213,5.388,2.171,10.739,7.559,11.953
			c0.74,0.167,1.479,0.246,2.207,0.246c4.572,0,8.699-3.156,9.746-7.804l1.098-4.878C223.576,270.1,220.192,264.749,214.804,263.535
			z"/>
	</g>
</g>
<g>
	<g>
		<path d="M459.318,373c-5.523,0-10,4.477-10,10c0,36.568-29.75,66.318-66.318,66.318c-5.523,0-10,4.477-10,10s4.477,10,10,10
			c47.596,0,86.318-38.722,86.318-86.318C469.318,377.477,464.841,373,459.318,373z"/>
	</g>
</g>
<g>
	<g>
		<path d="M59.958,374c-5.523,0-10,4.477-10,10v0.125c0,5.522,4.477,10,10,10s10-4.477,10-10V384
			C69.958,378.477,65.481,374,59.958,374z"/>
	</g>
</g>
<g>
	<g>
		<path d="M352.75,449.318h-1.083c-5.523,0-10,4.477-10,10s4.477,10,10,10h1.083c5.523,0,10-4.477,10-10
			S358.273,449.318,352.75,449.318z"/>
	</g>
</g>
<g>
</g>
<g>
</g>
<g>
</g>
<g>
</g>
<g>
</g>
<g>
</g>
<g>
</g>
<g>
</g>
<g>
</g>
<g>
</g>
<g>
</g>
<g>
</g>
<g>
</g>
<g>
</g>
<g>
</g>
</svg>
