<svg id="Capa_1" enable-background="new 0 0 512 512" height="512" viewBox="0 0 512 512" width="512" xmlns="http://www.w3.org/2000/svg"><g><circle cx="226" cy="196" r="10"/><circle cx="166" cy="196" r="10"/><path d="m412 156c-22.43 0-40 24.159-40 55s17.57 55 40 55 40-24.159 40-55-17.57-55-40-55zm0 90c-9.459 0-20-14.374-20-35s10.541-35 20-35 20 14.374 20 35-10.541 35-20 35z"/><path d="m412 66h-252c-64.082 0-100 77.748-100 145v125h-50c-5.523 0-10 4.477-10 10v60c0 22.056 17.944 40 40 40h51c5.523 0 10-4.477 10-10s-4.477-10-10-10h-51c-11.028 0-20-8.972-20-20v-50h232v50c0 7.283 1.966 14.112 5.381 20h-76.381c-5.523 0-10 4.477-10 10s4.477 10 10 10h111c22.056 0 40-17.944 40-40v-50h80c64.082 0 100-77.748 100-145 0-66.997-35.766-145-100-145zm-100 340c0 11.028-8.972 20-20 20s-20-8.972-20-20v-60c0-5.523-4.477-10-10-10h-182s.038-128.337.08-130h25.92c5.523 0 10-4.477 10-10s-4.477-10-10-10h-24.391c6.13-46.91 34.23-100 78.391-100.01h200.98c-27.899 23.925-43.134 62.949-47.516 100.01h-27.464c-5.523 0-10 4.477-10 10s4.477 10 10 9.99h26.065c-.039 1.673-.065 200.01-.065 200.01zm20-70v-37.646c7.267 14.005 16.903 27.294 28.98 37.646zm80 0c-52.695 0-80-71.944-80-125 0-52.93 27.241-125 80-125 52.695 0 80 71.944 80 125 0 52.93-27.241 125-80 125z"/><circle cx="136" cy="436" r="10"/></g></svg>