<?xml version="1.0" encoding="iso-8859-1"?>
<!-- Generator: Adobe Illustrator 19.0.0, SVG Export Plug-In . SVG Version: 6.00 Build 0)  -->
<svg version="1.1" id="Capa_1" xmlns="http://www.w3.org/2000/svg" xmlns:xlink="http://www.w3.org/1999/xlink" x="0px" y="0px"
	 viewBox="0 0 512 512" style="enable-background:new 0 0 512 512;" xml:space="preserve">
<g>
	<g>
		<path d="M32.319,0v273.302l60.667,55.151V512h90V328.453l60.666-55.152V0H32.319z M152.986,482h-30V335h30V482z M213.652,241
			h-28.666v30h16.601l-37.399,34h-52.402l-37.4-34h80.601v-30H62.319V30h151.333V241z"/>
	</g>
</g>
<g>
	<g>
		<path d="M431.294,43.195C425.991,18.166,403.571,0,377.986,0c-25.584,0-48.004,18.166-53.309,43.195L276.29,271.519l56.695,56.694
			V512h90V328.213l56.696-56.695L431.294,43.195z M392.986,482h-30V335h30V482z M403.773,305h-51.574l-34-34h76.787v-30h-81.561
			l40.601-191.585C356.41,38.165,366.487,30,377.986,30c11.499,0,21.576,8.165,23.96,19.415L442.547,241h-17.561v30h12.786
			L403.773,305z"/>
	</g>
</g>
<g>
</g>
<g>
</g>
<g>
</g>
<g>
</g>
<g>
</g>
<g>
</g>
<g>
</g>
<g>
</g>
<g>
</g>
<g>
</g>
<g>
</g>
<g>
</g>
<g>
</g>
<g>
</g>
<g>
</g>
</svg>
