<svg id="Capa_1" enable-background="new 0 0 512 512" height="512" viewBox="0 0 512 512" width="512" xmlns="http://www.w3.org/2000/svg"><g><path d="m356.5 0h-201c-38.322 0-69.5 31.178-69.5 69.5v412.5c0 16.542 13.458 30 30 30s30-13.458 30-30v-2h220v2c0 16.542 13.458 30 30 30s30-13.458 30-30v-412.5c0-38.322-31.178-69.5-69.5-69.5zm-230.5 482c0 5.514-4.486 10-10 10s-10-4.486-10-10v-2h20zm280 0c0 5.514-4.486 10-10 10s-10-4.486-10-10v-2h20zm0-22h-140v-29.005c0-5.523-4.477-10-10-10s-10 4.477-10 10v29.005h-140v-390.5c0-27.294 22.206-49.5 49.5-49.5h90.5v310.995c0 5.523 4.477 10 10 10s10-4.477 10-10v-310.995h90.5c27.294 0 49.5 22.206 49.5 49.5z"/><path d="m196 220c-5.523 0-10 4.477-10 10v40c0 5.523 4.477 10 10 10s10-4.477 10-10v-40c0-5.523-4.477-10-10-10z"/><path d="m316 220c-5.522 0-10 4.477-10 10v40c0 5.523 4.478 10 10 10s10-4.477 10-10v-40c0-5.523-4.478-10-10-10z"/><path d="m255.639 370.985c-5.523 0-10.005 4.482-10.005 10.005s4.482 10.005 10.005 10.005 10.006-4.482 10.006-10.005-4.483-10.005-10.006-10.005z"/></g></svg>