<?xml version="1.0" encoding="iso-8859-1"?>
<!-- Generator: Adobe Illustrator 19.0.0, SVG Export Plug-In . SVG Version: 6.00 Build 0)  -->
<svg version="1.1" id="Capa_1" xmlns="http://www.w3.org/2000/svg" xmlns:xlink="http://www.w3.org/1999/xlink" x="0px" y="0px"
	 viewBox="0 0 512.001 512.001" style="enable-background:new 0 0 512.001 512.001;" xml:space="preserve">
<g>
	<g>
		<path d="M365.912,421.999h-0.474c-5.523,0-10,4.478-10,10c0,5.523,4.477,10,10,10h0.474c5.523,0,10-4.477,10-10
			C375.912,426.477,371.436,421.999,365.912,421.999z"/>
	</g>
</g>
<g>
	<g>
		<path d="M462,421.999h-67.002c-5.523,0-10,4.478-10,10c0,5.523,4.477,10,10,10H462c5.523,0,10-4.477,10-10
			C472,426.477,467.523,421.999,462,421.999z"/>
	</g>
</g>
<g>
	<g>
		<path d="M482,0H30C13.458,0,0,13.458,0,30V452c0,16.541,13.458,30,29.999,30v5c0,13.785,11.216,25,25.001,25h30
			c13.785,0,25.001-11.215,25.001-25v-5H402v5c0,13.785,11.216,25,25.001,25H457c13.785,0,25-11.215,25-25v-5
			c16.543,0,30.001-13.459,30.001-30V30C512.001,13.458,498.543,0,482,0z M20,60h119.999v10c0,5.514-4.485,10-9.999,10H20V60z
			 M90.001,487c0,2.709-2.29,5-5.001,5H55c-2.711,0-5.001-2.291-5.001-5v-5h40.002V487z M462,487c0,2.709-2.29,5-5,5h-29.999
			c-2.71,0-5.001-2.291-5.001-5v-5h40V487z M492.001,452c0,5.514-4.487,10-10.001,10h-10h-60H100.001H39.999H30
			c-5.514,0-10-4.486-10-10V100h110c16.541,0,29.999-13.457,29.999-30V60h332.002V452z M492.001,39.998H20v-10
			C20,24.485,24.486,20,30,20h452c5.514,0,10.001,4.484,10.001,9.998V39.998z"/>
	</g>
</g>
<g>
	<g>
		<path d="M330.074,281.341L305.523,261l24.551-20.34c4.254-3.522,4.845-9.826,1.322-14.08c-3.523-4.252-9.828-4.844-14.081-1.32
			l-31.07,25.74H266v-20.244l25.74-31.07c3.523-4.252,2.933-10.557-1.32-14.08c-4.252-3.525-10.557-2.932-14.08,1.32L256,211.475
			l-20.34-24.551c-3.525-4.252-9.828-4.844-14.081-1.32c-4.253,3.523-4.845,9.828-1.321,14.08L246,230.754v20.244h-20.244
			l-31.069-25.74c-4.253-3.525-10.556-2.932-14.081,1.32c-3.523,4.254-2.932,10.557,1.321,14.08l24.552,20.34l-24.552,20.342
			c-4.253,3.523-4.845,9.828-1.32,14.08c1.978,2.387,4.831,3.621,7.706,3.621c2.247,0,4.508-0.754,6.374-2.301l31.069-25.742H246
			v20.244l-25.742,31.072c-3.523,4.254-2.932,10.559,1.322,14.082c1.865,1.545,4.125,2.299,6.373,2.299
			c2.875,0,5.729-1.234,7.707-3.621L256,310.522l20.339,24.553c3.522,4.252,9.827,4.842,14.081,1.322
			c4.252-3.523,4.844-9.828,1.321-14.08L266,291.243V271h20.244l31.07,25.742c1.867,1.547,4.127,2.301,6.375,2.301
			c2.875,0,5.729-1.234,7.705-3.621C334.918,291.169,334.328,284.865,330.074,281.341z"/>
	</g>
</g>
<g>
	<g>
		<path d="M256,159.286c-5.522,0-10,4.477-10,10v0.57c0,5.521,4.478,10,10,10c5.523,0,10-4.479,10-10v-0.57
			C266,163.763,261.523,159.286,256,159.286z"/>
	</g>
</g>
<g>
	<g>
		<path d="M164.857,250.999h-0.57c-5.523,0-10,4.479-10,10c0,5.523,4.477,10,10,10h0.57c5.523,0,10-4.477,10-10
			C174.857,255.477,170.38,250.999,164.857,250.999z"/>
	</g>
</g>
<g>
	<g>
		<path d="M256,342.145c-5.522,0-10,4.477-10,10v0.568c0,5.522,4.478,10,10,10c5.523,0,10-4.478,10-10v-0.568
			C266,346.622,261.523,342.145,256,342.145z"/>
	</g>
</g>
<g>
	<g>
		<path d="M347.714,250.999h-0.569c-5.523,0-10,4.479-10,10c0,5.523,4.477,10,10,10h0.569c5.522,0,10-4.477,10-10
			C357.714,255.477,353.236,250.999,347.714,250.999z"/>
	</g>
</g>
<g>
</g>
<g>
</g>
<g>
</g>
<g>
</g>
<g>
</g>
<g>
</g>
<g>
</g>
<g>
</g>
<g>
</g>
<g>
</g>
<g>
</g>
<g>
</g>
<g>
</g>
<g>
</g>
<g>
</g>
</svg>
