<svg id="Layer_1" enable-background="new 0 0 512 512" height="512" viewBox="0 0 512 512" width="512" xmlns="http://www.w3.org/2000/svg"><g><g><path d="m456 0h-400c-16.542 0-30 13.458-30 30v452c0 16.542 13.458 30 30 30h400c16.542 0 30-13.458 30-30v-452c0-16.542-13.458-30-30-30zm10 482c0 5.514-4.486 10-10 10h-400c-5.514 0-10-4.486-10-10v-22h164.997c5.522 0 10-4.478 10-10s-4.478-10-10-10h-164.997v-410c0-5.514 4.486-10 10-10h400c5.514 0 10 4.486 10 10v410h-165.003c-5.522 0-10 4.478-10 10s4.478 10 10 10h165.003z"/><path d="m146 200c44.112 0 80-35.889 80-80.001s-35.888-80-80-80-80 35.888-80 80 35.888 80.001 80 80.001zm-48.877-114.736 3.268 3.268c1.952 1.953 4.512 2.93 7.071 2.93s5.118-.977 7.07-2.929c3.906-3.905 3.906-10.236.001-14.142l-3.269-3.269c9.811-6.993 21.796-11.124 34.735-11.124s24.924 4.131 34.735 11.124l-3.269 3.269c-3.905 3.905-3.905 10.236.001 14.142 1.952 1.953 4.511 2.929 7.07 2.929s5.119-.977 7.071-2.93l3.268-3.268c6.994 9.811 11.125 21.796 11.125 34.735s-4.131 24.924-11.123 34.736l-3.267-3.268c-3.902-3.904-10.235-3.905-14.142-.001-3.906 3.905-3.906 10.236-.001 14.142l3.269 3.269c-9.812 6.992-21.797 11.123-34.736 11.123s-24.924-4.131-34.735-11.124l3.269-3.269c3.905-3.905 3.905-10.236-.001-14.142-3.904-3.906-10.237-3.905-14.142.001l-3.267 3.268c-6.993-9.811-11.124-21.796-11.124-34.735s4.131-24.924 11.123-34.735z"/><path d="m146 152.499c17.921 0 32.5-14.579 32.5-32.5s-14.579-32.5-32.5-32.5-32.5 14.579-32.5 32.5 14.579 32.5 32.5 32.5zm0-45c6.893 0 12.5 5.607 12.5 12.5s-5.607 12.5-12.5 12.5-12.5-5.607-12.5-12.5 5.607-12.5 12.5-12.5z"/><path d="m146 259.999c-44.112 0-80 35.888-80 80s35.888 80.001 80 80.001 80-35.889 80-80.001-35.888-80-80-80zm48.877 114.736-3.267-3.268c-3.902-3.904-10.235-3.905-14.142-.001-3.906 3.905-3.906 10.236-.001 14.142l3.269 3.269c-9.812 6.992-21.797 11.123-34.736 11.123s-24.924-4.131-34.735-11.124l3.269-3.269c3.905-3.905 3.905-10.236-.001-14.142-3.904-3.906-10.237-3.905-14.142.001l-3.267 3.268c-6.993-9.811-11.124-21.796-11.124-34.735s4.131-24.924 11.123-34.735l3.268 3.268c1.952 1.953 4.512 2.93 7.071 2.93s5.118-.977 7.07-2.929c3.906-3.905 3.906-10.236.001-14.142l-3.269-3.269c9.811-6.993 21.796-11.124 34.735-11.124s24.924 4.131 34.735 11.124l-3.269 3.269c-3.905 3.905-3.905 10.236.001 14.142 1.952 1.953 4.511 2.929 7.07 2.929s5.119-.977 7.071-2.93l3.268-3.268c6.994 9.811 11.125 21.796 11.125 34.735s-4.131 24.924-11.123 34.736z"/><path d="m146 307.5c-17.921 0-32.5 14.579-32.5 32.499 0 17.921 14.579 32.501 32.5 32.501s32.5-14.58 32.5-32.501c0-17.92-14.579-32.499-32.5-32.499zm0 45c-6.893 0-12.5-5.608-12.5-12.501 0-6.892 5.607-12.499 12.5-12.499s12.5 5.607 12.5 12.499c0 6.893-5.607 12.501-12.5 12.501z"/><path d="m366 200c44.112 0 80-35.889 80-80.001s-35.888-80-80-80-80 35.888-80 80 35.888 80.001 80 80.001zm-48.877-114.735 3.269 3.269c1.953 1.952 4.512 2.929 7.071 2.929s5.118-.977 7.071-2.929c3.905-3.905 3.905-10.237 0-14.143l-3.269-3.269c9.811-6.992 21.796-11.123 34.734-11.123 12.939 0 24.924 4.131 34.735 11.124l-3.268 3.268c-3.905 3.905-3.905 10.237 0 14.143 1.953 1.952 4.512 2.929 7.071 2.929s5.118-.977 7.071-2.929l3.268-3.268c6.994 9.81 11.124 21.795 11.124 34.733 0 12.939-4.13 24.924-11.123 34.735l-3.268-3.268c-3.906-3.904-10.236-3.904-14.143 0-3.905 3.905-3.905 10.237 0 14.143l3.268 3.268c-9.81 6.992-21.795 11.123-34.734 11.123s-24.924-4.131-34.734-11.123l3.269-3.269c3.905-3.905 3.905-10.237 0-14.143-3.906-3.904-10.236-3.904-14.143 0l-3.269 3.269c-6.992-9.811-11.123-21.796-11.123-34.735s4.131-24.924 11.123-34.734z"/><path d="m366 152.499c17.921 0 32.5-14.579 32.5-32.5s-14.579-32.5-32.5-32.5-32.5 14.579-32.5 32.5 14.579 32.5 32.5 32.5zm0-45c6.893 0 12.5 5.607 12.5 12.5s-5.607 12.5-12.5 12.5-12.5-5.607-12.5-12.5 5.607-12.5 12.5-12.5z"/><path d="m366 420c44.112 0 80-35.889 80-80.001s-35.888-80-80-80-80 35.888-80 80 35.888 80.001 80 80.001zm-48.877-114.735 3.269 3.269c1.953 1.952 4.512 2.929 7.071 2.929s5.118-.977 7.071-2.929c3.905-3.905 3.905-10.237 0-14.143l-3.269-3.269c9.811-6.992 21.796-11.123 34.734-11.123 12.939 0 24.924 4.131 34.735 11.124l-3.268 3.268c-3.905 3.905-3.905 10.237 0 14.143 1.953 1.952 4.512 2.929 7.071 2.929s5.118-.977 7.071-2.929l3.268-3.268c6.994 9.81 11.124 21.795 11.124 34.733 0 12.939-4.13 24.924-11.123 34.735l-3.268-3.268c-3.906-3.904-10.236-3.904-14.143 0-3.905 3.905-3.905 10.237 0 14.143l3.268 3.268c-9.81 6.992-21.795 11.123-34.734 11.123s-24.924-4.131-34.734-11.123l3.269-3.269c3.905-3.905 3.905-10.237 0-14.143-3.906-3.904-10.236-3.904-14.143 0l-3.269 3.269c-6.992-9.811-11.123-21.796-11.123-34.735s4.131-24.924 11.123-34.734z"/><path d="m366 372.5c17.921 0 32.5-14.58 32.5-32.501 0-17.92-14.579-32.499-32.5-32.499s-32.5 14.579-32.5 32.499c0 17.921 14.579 32.501 32.5 32.501zm0-45c6.893 0 12.5 5.607 12.5 12.499 0 6.893-5.607 12.501-12.5 12.501s-12.5-5.608-12.5-12.501c0-6.892 5.607-12.499 12.5-12.499z"/><path d="m296 240c5.522 0 10-4.478 10-10s-4.478-10-10-10h-30v-30c0-5.522-4.478-10-10-10s-10 4.478-10 10v30h-30c-5.522 0-10 4.478-10 10s4.478 10 10 10h30v29.999c0 5.522 4.478 10 10 10s10-4.478 10-10v-29.999z"/><path d="m256 440h-.007c-5.522 0-9.996 4.478-9.996 10s4.48 10 10.003 10 10-4.478 10-10-4.478-10-10-10z"/></g></g></svg>