<svg id="Capa_1" enable-background="new 0 0 512 512" height="512" viewBox="0 0 512 512" width="512" xmlns="http://www.w3.org/2000/svg"><g><path d="m474.5 0h-437c-20.678 0-37.5 16.822-37.5 37.5v437c0 20.678 16.822 37.5 37.5 37.5h437c20.678 0 37.5-16.822 37.5-37.5v-437c0-20.678-16.822-37.5-37.5-37.5zm22.5 474.5c0 12.406-10.094 22.5-22.5 22.5h-437c-12.406 0-22.5-10.094-22.5-22.5v-437c0-12.406 10.094-22.5 22.5-22.5h437c12.406 0 22.5 10.094 22.5 22.5z"/><path d="m256 218.5c-20.678 0-37.5 16.822-37.5 37.5s16.822 37.5 37.5 37.5 37.5-16.822 37.5-37.5-16.822-37.5-37.5-37.5zm0 60c-12.406 0-22.5-10.094-22.5-22.5s10.094-22.5 22.5-22.5 22.5 10.094 22.5 22.5-10.094 22.5-22.5 22.5z"/><circle cx="256" cy="256" r="7.5"/><path d="m414.5 263.5h-30c-4.143 0-7.5 3.357-7.5 7.5v30c0 4.143 3.357 7.5 7.5 7.5h30c4.143 0 7.5-3.357 7.5-7.5v-30c0-4.143-3.357-7.5-7.5-7.5zm-7.5 30h-15v-15h15z"/><path d="m354.5 263.5h-30c-4.143 0-7.5 3.357-7.5 7.5v30c0 4.143 3.357 7.5 7.5 7.5h30c4.143 0 7.5-3.357 7.5-7.5v-30c0-4.143-3.357-7.5-7.5-7.5zm-7.5 30h-15v-15h15z"/><path d="m414.5 203.5h-30c-4.143 0-7.5 3.357-7.5 7.5v30c0 4.143 3.357 7.5 7.5 7.5h30c4.143 0 7.5-3.357 7.5-7.5v-30c0-4.143-3.357-7.5-7.5-7.5zm-7.5 30h-15v-15h15z"/><path d="m354.5 203.5h-30c-4.143 0-7.5 3.357-7.5 7.5v30c0 4.143 3.357 7.5 7.5 7.5h30c4.143 0 7.5-3.357 7.5-7.5v-30c0-4.143-3.357-7.5-7.5-7.5zm-7.5 30h-15v-15h15z"/><path d="m444.5 60h-377c-4.143 0-7.5 3.357-7.5 7.5v23.255c-17.096 3.484-30 18.635-30 36.745v31c0 18.11 12.904 33.261 30 36.745v98.255c0 4.143 3.357 7.5 7.5 7.5s7.5-3.357 7.5-7.5v-218.5h362v98.5h-181c-45.49 0-82.5 37.01-82.5 82.5s37.01 82.5 82.5 82.5h181v98.5h-362v-113.5c0-4.143-3.357-7.5-7.5-7.5-20.678 0-37.5 16.822-37.5 37.5v31c0 18.109 12.904 33.262 30 36.747v23.253c0 4.143 3.357 7.5 7.5 7.5h377c4.143 0 7.5-3.357 7.5-7.5v-377c0-4.143-3.357-7.5-7.5-7.5zm-399.5 98.5v-31c0-9.777 6.271-18.114 15-21.21v73.42c-8.729-3.096-15-11.433-15-21.21zm15 247.215c-8.73-3.096-15-11.437-15-21.215v-31c0-9.778 6.27-18.119 15-21.215zm196-82.215c-37.22 0-67.5-30.28-67.5-67.5s30.28-67.5 67.5-67.5h181v135z"/></g></svg>