<svg viewBox="0 -36 511.99988 511" xmlns="http://www.w3.org/2000/svg"><path d="m259.824219 275.121094v.277344c0 5.527343 4.480469 10.007812 10.007812 10.007812 5.53125 0 10.011719-4.480469 10.011719-10.007812v-.277344c0-5.527344-4.480469-10.007813-10.011719-10.007813-5.527343 0-10.007812 4.480469-10.007812 10.007813zm0 0"/><path d="m495.625 164.515625-2.117188-1.542969c-17.773437-12.960937-42.78125-9.042968-55.742187 8.730469l-61.882813 84.859375h-76.523437c-5.527344 0-10.007813 4.484375-10.007813 10.011719 0 5.527343 4.480469 10.007812 10.007813 10.007812h61.925781l-4.019531 5.515625c-6.28125 8.613282-8.832031 19.152344-7.183594 29.679688.226563 1.421875.527344 2.820312.894531 4.195312h-125.941406l1.226563-1.601562c6.308593-6.066406 13.859375-11.675782 22.453125-16.683594 4.777344-2.78125 6.394531-8.90625 3.613281-13.683594-2.785156-4.777344-8.910156-6.394531-13.6875-3.613281-8.753906 5.101563-16.621094 10.796875-23.460937 16.964844l-39.0625-133.195313 118.136718-34.058594c5.3125-1.53125 8.378906-7.078124 6.84375-12.390624-20.925781-72.589844-94.65625-115.910157-167.433594-100.292969l-2.789062-9.679688c-1.53125-5.3125-7.082031-8.375-12.390625-6.84375-5.3125 1.53125-8.375 7.078125-6.84375 12.390625l2.789063 9.679688c-69.921876 25.523437-109.269532 101.445312-88.34375 174.035156.734374 2.546875 2.453124 4.703125 4.777343 5.988281 1.496094.824219 3.160157 1.246094 4.839844 1.246094.929687 0 1.863281-.128906 2.773437-.390625l118.402344-34.140625 42.296875 144.210937c.214844.730469.511719 1.417969.871094 2.058594h-160.152344c-21.996093 0-39.894531 17.898438-39.894531 39.894532v2.621093c0 22 17.898438 39.898438 39.894531 39.898438h23.570313l-17.910156 25.699219c-3.164063 4.535156-2.046876 10.773437 2.488281 13.933593 1.742187 1.214844 3.738281 1.800781 5.710937 1.800781 3.164063 0 6.277344-1.496093 8.222656-4.289062l25.886719-37.144531h212.519531l25.886719 37.144531c1.945313 2.792969 5.058594 4.289062 8.222657 4.289062 1.972656 0 3.96875-.585937 5.710937-1.800781 4.535156-3.160156 5.652344-9.398437 2.488281-13.933593l-17.910156-25.699219h28.5c21.996094 0 39.894531-17.898438 39.894531-39.898438v-2.621093c0-3.042969-.351562-6.003907-1-8.855469 12.113281-.183594 24.003907-5.835938 31.675781-16.355469l80.5-110.398438c12.964844-17.773437 9.046876-42.777343-8.726562-55.742187zm-406.523438 3.898437c-2.703124-51.265624 17.539063-92.453124 33.628907-116.664062l28.472656 98.761719zm145.082032-41.828124-63.746094 18.378906-28.871094-100.148438c26.507813 11.59375 66.957032 35.765625 92.617188 81.769532zm44.523437-12.835938-24.824219 7.15625c-23.546874-44.65625-59.515624-71.367188-88.179687-86.613281 49.414063.878906 94.953125 31.695312 113.003906 79.457031zm-180.222656-60.863281c-16.320313 28.175781-32.960937 70.304687-29.074219 121.207031l-26.476562 7.632812c-10.324219-50.925781 12.777344-102.160156 55.550781-128.839843zm274.675781 305.601562c0 10.960938-8.917968 19.878907-19.878906 19.878907h-313.386719c-10.960937 0-19.875-8.917969-19.875-19.878907v-2.621093c0-10.960938 8.914063-19.875 19.875-19.875h313.386719c10.960938 0 19.878906 8.914062 19.878906 19.875zm115.019532-150.023437-80.503907 110.394531c-6.457031 8.859375-18.914062 10.808594-27.773437 4.351563l-2.117188-1.546876c-4.289062-3.128906-7.105468-7.738281-7.925781-12.984374-.824219-5.246094.449219-10.496094 3.578125-14.789063l15.207031-20.855469c.300781-.355468.570313-.730468.820313-1.125l64.472656-88.414062c3.886719-5.328125 9.945312-8.15625 16.085938-8.15625 4.0625 0 8.160156 1.238281 11.6875 3.808594l2.117187 1.542968c8.859375 6.460938 10.808594 18.917969 4.351563 27.773438zm0 0"/></svg>